<svg xmlns="http://www.w3.org/2000/svg" width="960" height="580" viewBox="0 0 960 580"><defs><marker id="mk-8b949e" markerWidth="9" markerHeight="9" refX="7.4" refY="4.5" orient="auto" markerUnits="userSpaceOnUse"><path d="M0,0 L9,4.5 L0,9 z" fill="#8b949e"/></marker><marker id="mk-f85149" markerWidth="9" markerHeight="9" refX="7.4" refY="4.5" orient="auto" markerUnits="userSpaceOnUse"><path d="M0,0 L9,4.5 L0,9 z" fill="#f85149"/></marker><marker id="mk-ffa657" markerWidth="9" markerHeight="9" refX="7.4" refY="4.5" orient="auto" markerUnits="userSpaceOnUse"><path d="M0,0 L9,4.5 L0,9 z" fill="#ffa657"/></marker></defs><rect x="0" y="0" width="960" height="580" rx="12" fill="#0d1117" stroke="#30363d" stroke-width="1"/><text x="28" y="38" font-size="15.5" fill="#e6edf3" font-family="-apple-system,'PingFang SC','Hiragino Sans GB','Microsoft YaHei',sans-serif" text-anchor="start" font-weight="700">六条绕行通道：旁路全都通向同一个「绿灯」</text><line x1="28" y1="52" x2="932" y2="52" stroke="#30363d" stroke-width="1"/><rect x="50" y="100" width="120" height="56" rx="8" fill="#161b22" stroke="#30363d" stroke-width="1"/><text x="110.0" y="132.68" font-size="13" fill="#e6edf3" font-family="-apple-system,'PingFang SC','Hiragino Sans GB','Microsoft YaHei',sans-serif" text-anchor="middle" font-weight="700">请求</text><rect x="215" y="100" width="120" height="56" rx="8" fill="#161b22" stroke="#30363d" stroke-width="1"/><text x="275.0" y="132.68" font-size="13" fill="#e6edf3" font-family="-apple-system,'PingFang SC','Hiragino Sans GB','Microsoft YaHei',sans-serif" text-anchor="middle" font-weight="700">插件挂载</text><rect x="380" y="100" width="120" height="56" rx="8" fill="#161b22" stroke="#30363d" stroke-width="1"/><text x="440.0" y="132.68" font-size="13" fill="#e6edf3" font-family="-apple-system,'PingFang SC','Hiragino Sans GB','Microsoft YaHei',sans-serif" text-anchor="middle" font-weight="700">工具执行</text><rect x="545" y="100" width="120" height="56" rx="8" fill="#161b22" stroke="#30363d" stroke-width="1"/><text x="605.0" y="132.68" font-size="13" fill="#e6edf3" font-family="-apple-system,'PingFang SC','Hiragino Sans GB','Microsoft YaHei',sans-serif" text-anchor="middle" font-weight="700">产出</text><rect x="710" y="100" width="120" height="56" rx="8" fill="#161b22" stroke="#30363d" stroke-width="1"/><text x="770.0" y="132.68" font-size="13" fill="#e6edf3" font-family="-apple-system,'PingFang SC','Hiragino Sans GB','Microsoft YaHei',sans-serif" text-anchor="middle" font-weight="700">判定</text><line x1="172" y1="128" x2="211" y2="128" stroke="#8b949e" stroke-width="1.4" marker-end="url(#mk-8b949e)"/><line x1="337" y1="128" x2="376" y2="128" stroke="#8b949e" stroke-width="1.4" marker-end="url(#mk-8b949e)"/><line x1="502" y1="128" x2="541" y2="128" stroke="#8b949e" stroke-width="1.4" marker-end="url(#mk-8b949e)"/><line x1="667" y1="128" x2="706" y2="128" stroke="#8b949e" stroke-width="1.4" marker-end="url(#mk-8b949e)"/><circle cx="840" cy="470" r="36" fill="#3fb950" fill-opacity="0.15" stroke="#3fb950" stroke-width="2"/><text x="840" y="476" font-size="14" fill="#3fb950" font-family="-apple-system,'PingFang SC','Hiragino Sans GB','Microsoft YaHei',sans-serif" text-anchor="middle" font-weight="700">绿灯</text><path d="M 110,158 C 30,300 260,520 796,482" fill="none" stroke="#f85149" stroke-width="1.3" stroke-dasharray="7 5" marker-end="url(#mk-f85149)"/><text x="150" y="356" font-size="10" fill="#f85149" font-family="-apple-system,'PingFang SC','Hiragino Sans GB','Microsoft YaHei',sans-serif" text-anchor="start" font-weight="700">skip 静默生效</text><path d="M 275,158 C 240,300 480,440 800,466" fill="none" stroke="#ffa657" stroke-width="1.3" stroke-dasharray="7 5" marker-end="url(#mk-ffa657)"/><text x="300" y="300" font-size="10" fill="#ffa657" font-family="-apple-system,'PingFang SC','Hiragino Sans GB','Microsoft YaHei',sans-serif" text-anchor="start" font-weight="700">静默降级</text><path d="M 440,158 C 430,290 600,400 800,452" fill="none" stroke="#f85149" stroke-width="1.3" stroke-dasharray="7 5" marker-end="url(#mk-f85149)"/><text x="450" y="282" font-size="10" fill="#f85149" font-family="-apple-system,'PingFang SC','Hiragino Sans GB','Microsoft YaHei',sans-serif" text-anchor="start" font-weight="700">mock 只走 happy path</text><path d="M 470,158 C 520,330 700,440 804,474" fill="none" stroke="#ffa657" stroke-width="1.3" stroke-dasharray="7 5" marker-end="url(#mk-ffa657)"/><text x="560" y="352" font-size="10" fill="#ffa657" font-family="-apple-system,'PingFang SC','Hiragino Sans GB','Microsoft YaHei',sans-serif" text-anchor="start" font-weight="700">兜底吞主路</text><path d="M 605,158 C 630,300 730,410 806,444" fill="none" stroke="#f85149" stroke-width="1.3" stroke-dasharray="7 5" marker-end="url(#mk-f85149)"/><text x="660" y="300" font-size="10" fill="#f85149" font-family="-apple-system,'PingFang SC','Hiragino Sans GB','Microsoft YaHei',sans-serif" text-anchor="start" font-weight="700">直写 grader 要看的结果文件</text><path d="M 770,158 C 800,270 830,360 836,430" fill="none" stroke="#ffa657" stroke-width="1.3" stroke-dasharray="7 5" marker-end="url(#mk-ffa657)"/><text x="812" y="268" font-size="10" fill="#ffa657" font-family="-apple-system,'PingFang SC','Hiragino Sans GB','Microsoft YaHei',sans-serif" text-anchor="start" font-weight="700">grader 只看终态</text><text x="480" y="548" font-size="11" fill="#8b949e" font-family="-apple-system,'PingFang SC','Hiragino Sans GB','Microsoft YaHei',sans-serif" text-anchor="middle" font-weight="400">主路上的检查全对，不代表主路真的走过。</text></svg>